# xmcd CD database file
#
# Track frame offsets:
#	150
#	17559
#	35853
#	57759
#	73947
#	91043
#	109172
#	125357
#	145046
#	160183
#	176046
#	193708
#	214883
#	234957
#	265645
#	276188
#	290431
#
# Disc length: 4440 seconds
#
# Revision: 0
# Processed by: cddbd v1.5.1PL2 Copyright (c) Steve Scherf et al.
# Submitted via: CDex 1.51
#
DISCID=f5115611
DTITLE=Various Artist - Where we live ( a benefit cd for Earthjustice)
DYEAR=2003
DGENRE=Pop Rock
TTITLE0=Norah Jones  -  Peace
TTITLE1=Pops Staples (with Ry Cooder)  -  I shall not be moved
TTITLE2=Los lObos  -  What's going on
TTITLE3=Bob Dylan  -  watching the river flow
TTITLE4=Maria Muldaur (& Bonnie Raitt)  -  It's blessing
TTITLE5=Ruben Blades  -  Estampa
TTITLE6=Dan Zanes and Friends (Lou Reed and The Rubi Theater Cie) -  What a wonderful world
TTITLE7=Michael Franti and Spearhead  -  yes i will
TTITLE8=Willie Nelson  - living in the prmiseland
TTITLE9=The Neville Brothers  -  sister Rosa
TTITLE10=Sweet Honey in the Rock  -  more than a paycheck
TTITLE11=Karen Savoca  -  two little feet
TTITLE12=Mose Allison  -  getting ther
TTITLE13=Tina Turner (& Robert Cray)  -  a change is gonna come
TTITLE14=John Hammond with Tom Waits)  -  i know i've been changed
TTITLE15=Captain Beefheart  -  happy heartday
TTITLE16=track bonus
EXTD=YEAR: 2003
EXTT0=
EXTT1=
EXTT2=
EXTT3=
EXTT4=
EXTT5=
EXTT6=
EXTT7=
EXTT8=
EXTT9=
EXTT10=
EXTT11=
EXTT12=
EXTT13=
EXTT14=
EXTT15=
EXTT16=
PLAYORDER=
